<?xml version="1.0" encoding="utf-8"?>
<!-- Generator: Adobe Illustrator 26.0.1, SVG Export Plug-In . SVG Version: 6.00 Build 0)  -->
<svg version="1.1" id="Layer_1" xmlns="http://www.w3.org/2000/svg" xmlns:xlink="http://www.w3.org/1999/xlink" x="0px" y="0px"
	 viewBox="0 0 782 200" style="enable-background:new 0 0 782 200;" xml:space="preserve">
<style type="text/css">
	.st0{fill:url(#SVGID_1_);}
	.st1{fill:url(#SVGID_00000130617406978346257960000008623807955681046413_);}
	.st2{fill:url(#SVGID_00000163780815057325790540000005621704928919629490_);}
	.st3{fill:url(#SVGID_00000026850792640944848680000009070156953790720407_);}
	.st4{fill:url(#SVGID_00000179642284409845982280000008581485575194827437_);}
	.st5{fill:url(#SVGID_00000122689038994340437780000003875834387556952961_);}
	.st6{fill:url(#SVGID_00000101815895818532508780000011328974561916828288_);stroke:#FFFFFF;stroke-miterlimit:10;}
	.st7{fill:url(#SVGID_00000055672228901916967290000010218765400594815404_);stroke:#FFFFFF;stroke-miterlimit:10;}
	.st8{fill:url(#SVGID_00000154401140742693520340000008068843479826309518_);stroke:#FFFFFF;stroke-miterlimit:10;}
	.st9{fill:url(#SVGID_00000003823829350274072990000004460183431837407923_);stroke:#FFFFFF;stroke-miterlimit:10;}
	.st10{fill:url(#SVGID_00000060726568746666475290000012183762691129916333_);stroke:#FFFFFF;stroke-miterlimit:10;}
	.st11{fill:url(#SVGID_00000066475623906389465060000010072430103679419322_);stroke:#FFFFFF;stroke-miterlimit:10;}
</style>
<g>
	<linearGradient id="SVGID_1_" gradientUnits="userSpaceOnUse" x1="188.9628" y1="143.1998" x2="188.9628" y2="19.9342">
		<stop  offset="0" style="stop-color:#EE0A78"/>
		<stop  offset="1" style="stop-color:#F84034"/>
	</linearGradient>
	<path style="fill:url(#SVGID_1_);stroke:#FFFFFF;stroke-miterlimit:10;" d="M255,19.9l-15.4,8.9v114.4h-8.9L142.8,39.8l6.8,100.7
		h20.7v2.7h-43.1v-2.7h9.4l2.7-110.6L123,19.9h52.2l60.9,74.6l-9.6-65.7l-15.4-8.9H255z"/>
	
		<linearGradient id="SVGID_00000016756413446724288750000014022022392446038706_" gradientUnits="userSpaceOnUse" x1="296.3811" y1="144.9122" x2="296.3811" y2="55.8872">
		<stop  offset="0" style="stop-color:#EE0A78"/>
		<stop  offset="1" style="stop-color:#F84034"/>
	</linearGradient>
	<path style="fill:url(#SVGID_00000016756413446724288750000014022022392446038706_);stroke:#FFFFFF;stroke-miterlimit:10;" d="
		M340.4,140.5v2.7h-42.8v-9.8c-8,6.8-17.1,11.5-26.5,11.5c-11.1,0-18.7-6.3-18.7-17.1c0-15.8,16.8-26.2,45.2-29.3
		c0-18.8-7.5-28.2-20.5-28.2c-7.7,0-13,2.1-18.8,6.5l-0.9-0.9c11.6-13,24.3-20,41.4-20c21.6,0,33,12.3,33,37.2v47.4H340.4z
		 M297.6,131v-30.3c-10.3,2.9-14.2,9.4-14.2,18.5c0,8,3.4,12.3,10.3,12.3C294.7,131.6,296,131.4,297.6,131z"/>
	
		<linearGradient id="SVGID_00000160875863948397255460000001025375071238850994_" gradientUnits="userSpaceOnUse" x1="401.5763" y1="143.1998" x2="401.5763" y2="14.7982">
		<stop  offset="0" style="stop-color:#EE0A78"/>
		<stop  offset="1" style="stop-color:#F84034"/>
	</linearGradient>
	<path style="fill:url(#SVGID_00000160875863948397255460000001025375071238850994_);stroke:#FFFFFF;stroke-miterlimit:10;" d="
		M457.6,140.5v2.7H415l-25.5-39.9v37.1h5.1v2.7h-47.9v-2.7h8.6V38.6l-9.8-8.4l44-15.4v85.8l13-9.4c8.4-6.2,12.5-10.3,12.5-18
		c0-4.5-1.9-9.4-7.4-12.2v-0.9h34.2c1,1.4,1.4,2.6,1.4,4.3c0,6.8-8,11.8-19.3,16.8l-10.4,4.6l37.1,54.6H457.6z"/>
	
		<linearGradient id="SVGID_00000068671279812327041050000011364437382005136555_" gradientUnits="userSpaceOnUse" x1="510.6216" y1="186" x2="510.6216" y2="54.1748">
		<stop  offset="0" style="stop-color:#EE0A78"/>
		<stop  offset="1" style="stop-color:#F84034"/>
	</linearGradient>
	<path style="fill:url(#SVGID_00000068671279812327041050000011364437382005136555_);stroke:#FFFFFF;stroke-miterlimit:10;" d="
		M562.8,96.5c0,30.1-16.6,48.5-39.7,48.5c-7.9,0-14.7-2.4-20.5-6.2v44.5h13.7v2.7h-56.5v-2.7h8.6V78l-9.8-8.4l44-15.4v16.9
		c9.1-9.2,19.7-15.2,29.8-15.2C549.6,55.9,562.8,69.9,562.8,96.5z M526.1,106.2c0-22.9-5-34.4-16.4-34.4c-2.6,0-4.8,0.7-7.2,1.7
		v62.3c2.4,1.7,5.5,2.6,8.4,2.6C519.8,138.4,526.1,126.8,526.1,106.2z"/>
	
		<linearGradient id="SVGID_00000132063502206400899910000017124401908803598507_" gradientUnits="userSpaceOnUse" x1="597.0677" y1="143.1998" x2="597.0677" y2="13.087">
		<stop  offset="0" style="stop-color:#EE0A78"/>
		<stop  offset="1" style="stop-color:#F84034"/>
	</linearGradient>
	<path style="fill:url(#SVGID_00000132063502206400899910000017124401908803598507_);stroke:#FFFFFF;stroke-miterlimit:10;" d="
		M572,140.5h8.6V78l-9.8-8.4l44-15.4v86.3h8.6v2.7H572V140.5z M578.7,32.1c0-11.3,6.8-19,19-19s19,7.7,19,19
		c0,11.5-6.8,19.2-19,19.2S578.7,43.6,578.7,32.1z"/>
	
		<linearGradient id="SVGID_00000024715593818310693130000011394872750606549173_" gradientUnits="userSpaceOnUse" x1="654.7556" y1="143.1998" x2="654.7556" y2="14.7982">
		<stop  offset="0" style="stop-color:#EE0A78"/>
		<stop  offset="1" style="stop-color:#F84034"/>
	</linearGradient>
	<path style="fill:url(#SVGID_00000024715593818310693130000011394872750606549173_);stroke:#FFFFFF;stroke-miterlimit:10;" d="
		M629.7,140.5h8.6V38.6l-9.8-8.4l44-15.4v125.7h8.6v2.7h-51.4V140.5z"/>
</g>
</svg>
