<?xml version="1.0" encoding="utf-8"?>
<!-- Generator: Adobe Illustrator 26.0.1, SVG Export Plug-In . SVG Version: 6.00 Build 0)  -->
<svg version="1.1" id="Layer_1" xmlns="http://www.w3.org/2000/svg" xmlns:xlink="http://www.w3.org/1999/xlink" x="0px" y="0px"
	 viewBox="0 0 782 200" style="enable-background:new 0 0 782 200;" xml:space="preserve">
<style type="text/css">
	.st0{fill:url(#SVGID_1_);stroke:#FFFFFF;stroke-miterlimit:10;}
	.st1{fill:url(#SVGID_00000010280787018675740870000000652613368368677554_);stroke:#FFFFFF;stroke-miterlimit:10;}
	.st2{fill:url(#SVGID_00000053509570438712049350000017772898256822334119_);stroke:#FFFFFF;stroke-miterlimit:10;}
	.st3{fill:url(#SVGID_00000032637364697071557800000017051480170554667400_);stroke:#FFFFFF;stroke-miterlimit:10;}
	.st4{fill:url(#SVGID_00000115481851808338267410000009628135138981783961_);stroke:#FFFFFF;stroke-miterlimit:10;}
	.st5{fill:url(#SVGID_00000042696483980809690140000001356352839025926800_);stroke:#FFFFFF;stroke-miterlimit:10;}
	.st6{fill:url(#SVGID_00000026144687060757517240000009026099503536170392_);}
	.st7{fill:url(#SVGID_00000046320092750277780750000005790196788096049852_);}
	.st8{fill:url(#SVGID_00000083078740354789666730000000560872709687255202_);}
	.st9{fill:url(#SVGID_00000089554266129241095690000016622007942529655443_);}
	.st10{fill:url(#SVGID_00000041983705713268777600000008967271555179305115_);}
	.st11{fill:url(#SVGID_00000183247079327152588970000018205699426916335284_);}
</style>
<g>
	<linearGradient id="SVGID_1_" gradientUnits="userSpaceOnUse" x1="188.9628" y1="143.1998" x2="188.9628" y2="19.9342">
		<stop  offset="0" style="stop-color:#EE0A78"/>
		<stop  offset="1" style="stop-color:#F84034"/>
	</linearGradient>
	<path style="fill:url(#SVGID_1_);" d="M255,19.9l-15.4,8.9v114.4h-8.9L142.8,39.8l6.8,100.7h20.7v2.7h-43.1v-2.7h9.4l2.7-110.6
		L123,19.9h52.2l60.9,74.6l-9.6-65.7l-15.4-8.9H255z"/>
	
		<linearGradient id="SVGID_00000106137702740136033750000001107732942102063755_" gradientUnits="userSpaceOnUse" x1="296.3811" y1="144.9122" x2="296.3811" y2="55.8872">
		<stop  offset="0" style="stop-color:#EE0A78"/>
		<stop  offset="1" style="stop-color:#F84034"/>
	</linearGradient>
	<path style="fill:url(#SVGID_00000106137702740136033750000001107732942102063755_);" d="M340.4,140.5v2.7h-42.8v-9.8
		c-8,6.8-17.1,11.5-26.5,11.5c-11.1,0-18.7-6.3-18.7-17.1c0-15.8,16.8-26.2,45.2-29.3c0-18.8-7.5-28.2-20.5-28.2
		c-7.7,0-13,2.1-18.8,6.5l-0.9-0.9c11.6-13,24.3-20,41.4-20c21.6,0,33,12.3,33,37.2v47.4H340.4z M297.6,131v-30.3
		c-10.3,2.9-14.2,9.4-14.2,18.5c0,8,3.4,12.3,10.3,12.3C294.7,131.6,296,131.4,297.6,131z"/>
	
		<linearGradient id="SVGID_00000023972861056547367410000017922318708699203750_" gradientUnits="userSpaceOnUse" x1="401.5763" y1="143.1998" x2="401.5763" y2="14.7982">
		<stop  offset="0" style="stop-color:#EE0A78"/>
		<stop  offset="1" style="stop-color:#F84034"/>
	</linearGradient>
	<path style="fill:url(#SVGID_00000023972861056547367410000017922318708699203750_);" d="M457.6,140.5v2.7H415l-25.5-39.9v37.1h5.1
		v2.7h-47.9v-2.7h8.6V38.6l-9.8-8.4l44-15.4v85.8l13-9.4c8.4-6.2,12.5-10.3,12.5-18c0-4.5-1.9-9.4-7.4-12.2v-0.9h34.2
		c1,1.4,1.4,2.6,1.4,4.3c0,6.8-8,11.8-19.3,16.8l-10.4,4.6l37.1,54.6H457.6z"/>
	
		<linearGradient id="SVGID_00000065050333379846272910000017758518818125843623_" gradientUnits="userSpaceOnUse" x1="510.6216" y1="186" x2="510.6216" y2="54.1748">
		<stop  offset="0" style="stop-color:#EE0A78"/>
		<stop  offset="1" style="stop-color:#F84034"/>
	</linearGradient>
	<path style="fill:url(#SVGID_00000065050333379846272910000017758518818125843623_);" d="M562.8,96.5c0,30.1-16.6,48.5-39.7,48.5
		c-7.9,0-14.7-2.4-20.5-6.2v44.5h13.7v2.7h-56.5v-2.7h8.6V78l-9.8-8.4l44-15.4v16.9c9.1-9.2,19.7-15.2,29.8-15.2
		C549.6,55.9,562.8,69.9,562.8,96.5z M526.1,106.2c0-22.9-5-34.4-16.4-34.4c-2.6,0-4.8,0.7-7.2,1.7v62.3c2.4,1.7,5.5,2.6,8.4,2.6
		C519.8,138.4,526.1,126.8,526.1,106.2z"/>
	
		<linearGradient id="SVGID_00000116938333177215795230000006856572069265910197_" gradientUnits="userSpaceOnUse" x1="597.0677" y1="143.1998" x2="597.0677" y2="13.087">
		<stop  offset="0" style="stop-color:#EE0A78"/>
		<stop  offset="1" style="stop-color:#F84034"/>
	</linearGradient>
	<path style="fill:url(#SVGID_00000116938333177215795230000006856572069265910197_);" d="M572,140.5h8.6V78l-9.8-8.4l44-15.4v86.3
		h8.6v2.7H572V140.5z M578.7,32.1c0-11.3,6.8-19,19-19s19,7.7,19,19c0,11.5-6.8,19.2-19,19.2S578.7,43.6,578.7,32.1z"/>
	
		<linearGradient id="SVGID_00000028293866571960370350000010736283177953574282_" gradientUnits="userSpaceOnUse" x1="654.7556" y1="143.1998" x2="654.7556" y2="14.7982">
		<stop  offset="0" style="stop-color:#EE0A78"/>
		<stop  offset="1" style="stop-color:#F84034"/>
	</linearGradient>
	<path style="fill:url(#SVGID_00000028293866571960370350000010736283177953574282_);" d="M629.7,140.5h8.6V38.6l-9.8-8.4l44-15.4
		v125.7h8.6v2.7h-51.4V140.5z"/>
</g>
</svg>
