<?xml version="1.0" encoding="utf-8"?>
<!-- Generator: Adobe Illustrator 26.0.1, SVG Export Plug-In . SVG Version: 6.00 Build 0)  -->
<svg version="1.1" id="Layer_1" xmlns="http://www.w3.org/2000/svg" xmlns:xlink="http://www.w3.org/1999/xlink" x="0px" y="0px"
	 viewBox="0 0 782 200" style="enable-background:new 0 0 782 200;" xml:space="preserve">
<style type="text/css">
	.st0{fill:url(#SVGID_1_);stroke:#FFFFFF;stroke-miterlimit:10;}
	.st1{fill:url(#SVGID_00000113341236551086508220000016298837404711782806_);stroke:#FFFFFF;stroke-miterlimit:10;}
	.st2{fill:url(#SVGID_00000128453768413035765160000015342847312310866336_);stroke:#FFFFFF;stroke-miterlimit:10;}
	.st3{fill:url(#SVGID_00000111180473579682162460000007252101879871321767_);stroke:#FFFFFF;stroke-miterlimit:10;}
	.st4{fill:url(#SVGID_00000127734772744722611470000008367230198232339119_);stroke:#FFFFFF;stroke-miterlimit:10;}
	.st5{fill:url(#SVGID_00000095320952863655018980000010664317988413515198_);stroke:#FFFFFF;stroke-miterlimit:10;}
	.st6{fill:url(#SVGID_00000172429259125548146770000011495799212290963627_);}
	.st7{fill:url(#SVGID_00000009584096450680689430000017640925307783736482_);}
	.st8{fill:url(#SVGID_00000133524896125748894790000008949445421537539260_);}
	.st9{fill:url(#SVGID_00000177453881974301259870000000095251884062303115_);}
	.st10{fill:url(#SVGID_00000113318536552124144050000005191024271530675868_);}
	.st11{fill:url(#SVGID_00000041295895819566511990000000928904683130516629_);}
</style>
<g>
	<linearGradient id="SVGID_1_" gradientUnits="userSpaceOnUse" x1="195.7037" y1="166.9481" x2="195.7037" y2="38.6512">
		<stop  offset="2.237672e-07" style="stop-color:#F63443"/>
		<stop  offset="1" style="stop-color:#FF6A00"/>
	</linearGradient>
	<path class="st0" d="M140.1,98.7c0-36.3,24.3-60.1,61.3-60.1c17.4,0,31.9,3.9,44.2,10.3l-14.9,58.9h-0.2
		c-25.7-50.1-39.2-61.4-51.2-61.4c-7.4,0-13.2,5.7-13.2,19.2c0,43,35.1,78.3,71.1,78.3c4.7,0,10.6-0.7,13.8-2.2l0.2,0.2
		c-8.1,14.5-26.5,25-46.9,25C165.6,166.9,140.1,138.6,140.1,98.7z"/>
	
		<linearGradient id="SVGID_00000121278362962229135540000017520088617915661220_" gradientUnits="userSpaceOnUse" x1="295.1242" y1="165.2608" x2="295.1242" y2="77.4782">
		<stop  offset="2.237672e-07" style="stop-color:#F63443"/>
		<stop  offset="1" style="stop-color:#FF6A00"/>
	</linearGradient>
	<path style="fill:url(#SVGID_00000121278362962229135540000017520088617915661220_);stroke:#FFFFFF;stroke-miterlimit:10;" d="
		M333.9,148.4c-7.1,10.8-18.4,16.9-34.1,16.9c-23.8,0-43.4-16.5-43.4-42.7c0-24.6,16.5-45.1,43.6-45.1c15.9,0,26.8,9.3,26.8,21.6
		c0,14-10.8,26.3-31.1,33.9c9.6,9.5,21.8,15.7,33.1,15.7c1.7,0,3.4-0.2,4.9-0.5L333.9,148.4z M277.3,93.3c0,14,7.3,28.2,17.4,38.7
		c4.7-6.1,6.6-12.8,6.6-21.4c0-14.7-9.8-27.2-17-27.2C279.8,83.4,277.3,87.1,277.3,93.3z"/>
	
		<linearGradient id="SVGID_00000102528730221665600710000002573482966020326298_" gradientUnits="userSpaceOnUse" x1="363.4864" y1="163.5723" x2="363.4864" y2="36.9627">
		<stop  offset="2.237672e-07" style="stop-color:#F63443"/>
		<stop  offset="1" style="stop-color:#FF6A00"/>
	</linearGradient>
	<path style="fill:url(#SVGID_00000102528730221665600710000002573482966020326298_);stroke:#FFFFFF;stroke-miterlimit:10;" d="
		M338.8,160.9h8.4V60.4l-9.6-8.3L381,37v123.9h8.4v2.7h-50.6V160.9z"/>
	
		<linearGradient id="SVGID_00000036212114950964154370000009966968113101192883_" gradientUnits="userSpaceOnUse" x1="420.3704" y1="163.5723" x2="420.3704" y2="35.2754">
		<stop  offset="2.237672e-07" style="stop-color:#F63443"/>
		<stop  offset="1" style="stop-color:#FF6A00"/>
	</linearGradient>
	<path style="fill:url(#SVGID_00000036212114950964154370000009966968113101192883_);stroke:#FFFFFF;stroke-miterlimit:10;" d="
		M395.6,160.9h8.4V99.3l-9.6-8.3l43.4-15.2v85.1h8.4v2.7h-50.6V160.9z M402.2,54c0-11.1,6.8-18.7,18.7-18.7c12,0,18.7,7.6,18.7,18.7
		c0,11.3-6.8,18.9-18.7,18.9C409,72.9,402.2,65.3,402.2,54z"/>
	
		<linearGradient id="SVGID_00000171000403697920249590000015280373864432293541_" gradientUnits="userSpaceOnUse" x1="504.262" y1="163.5723" x2="504.262" y2="75.7897">
		<stop  offset="2.237672e-07" style="stop-color:#F63443"/>
		<stop  offset="1" style="stop-color:#FF6A00"/>
	</linearGradient>
	<path style="fill:url(#SVGID_00000171000403697920249590000015280373864432293541_);stroke:#FFFFFF;stroke-miterlimit:10;" d="
		M557.2,160.9v2.7h-49v-2.7h6.8v-50.8c0-13.2-3.2-17.6-10.1-17.6c-3.4,0-6.8,1-10.1,2.5v65.8h6.8v2.7h-49v-2.7h8.4V99.3l-9.6-8.3
		l43.4-15.2v16.9c11-9.5,20.8-16,32.2-16c14.3,0,21.8,8.9,21.8,26.2v58.1H557.2z"/>
	
		<linearGradient id="SVGID_00000133527554022726965290000015087970548746044339_" gradientUnits="userSpaceOnUse" x1="603.1771" y1="165.2608" x2="603.1771" y2="77.4782">
		<stop  offset="2.237672e-07" style="stop-color:#F63443"/>
		<stop  offset="1" style="stop-color:#FF6A00"/>
	</linearGradient>
	<path style="fill:url(#SVGID_00000133527554022726965290000015087970548746044339_);stroke:#FFFFFF;stroke-miterlimit:10;" d="
		M641.9,148.4c-7.1,10.8-18.4,16.9-34.1,16.9c-23.8,0-43.4-16.5-43.4-42.7c0-24.6,16.5-45.1,43.6-45.1c15.9,0,26.8,9.3,26.8,21.6
		c0,14-10.8,26.3-31.1,33.9c9.6,9.5,21.8,15.7,33.1,15.7c1.7,0,3.4-0.2,4.9-0.5L641.9,148.4z M585.4,93.3c0,14,7.3,28.2,17.4,38.7
		c4.7-6.1,6.6-12.8,6.6-21.4c0-14.7-9.8-27.2-17-27.2C587.9,83.4,585.4,87.1,585.4,93.3z"/>
</g>
</svg>
