<?xml version="1.0" encoding="utf-8"?>
<!-- Generator: Adobe Illustrator 26.0.1, SVG Export Plug-In . SVG Version: 6.00 Build 0)  -->
<svg version="1.1" id="Layer_1" xmlns="http://www.w3.org/2000/svg" xmlns:xlink="http://www.w3.org/1999/xlink" x="0px" y="0px"
	 viewBox="0 0 217 164.7" style="enable-background:new 0 0 217 164.7;" xml:space="preserve">
<style type="text/css">
	.st0{fill:#38339A;}
	.st1{fill:#FFFFFF;}
</style>
<path class="st0" d="M58.5,73.2c-1-1.9-2.1-3.8-3.1-5.8c-1.9-3.8-3.7-7.6-5.8-11.3c0.6,1.6,1.2,3.1,1.7,4.7
	c-0.2,0.1-0.5,0.2-0.7,0.2c-0.9-2.9-1.7-5.7-2.6-8.6c-0.6-1.9-1.1-4-3.3-4.7c-0.1-0.9-0.1-1.8-0.3-3.2c8.7,1,17.5,2.1,26.2,3.2
	c0,0.2,0,0.4,0,0.5c-0.3,0.1-0.7,0.2-1,0.3c0.1,0.1,0.2,0.2,0.2,0.2c1.6,0.4,3.3,0.5,4.8,1.2c1.2,0.5,1.8,0,2.6-0.6
	c2.8-2,5.6-3.8,8.6-5.9c-1.7-8.5-3.4-17.2-5.2-25.9c0.3-0.2,0.6-0.4,0.9-0.6c6.8,4.1,13.6,8.2,20.4,12.3c0.7,0.4,1.6,0.7,2.4,1
	c2.2,1.6,4.5,3.2,6.7,4.8c1.6,1.7,3.6,1.8,5.8,1.3c8.8-2,17.6-2.5,26,1.1c8.9,3.9,17.4,8.6,23.2,16.8c1.7,2.5,3.2,5.1,4.4,7
	c1.3-1,3.1-2.1,4.2-3.6c0.6-0.8,0.3-2.4,0.3-3.6c0-1.5-0.3-2.9-0.3-4.4c0-0.6,0.3-1.2,0.5-1.8c0.3,0,0.5,0,0.8,0
	c0.3,2.4,0.5,4.7,0.8,7c1.3-1.4,2.7-2.9,4.1-4.4c0.2,0.1,0.4,0.3,0.6,0.4c0.5,3.1-3.3,3.7-4.1,6.6c1.6,0.1,3.2,0.1,4.7,0.3
	c0.6,0.1,1.2,0.7,1.7,1c-0.6,0.3-1.2,0.9-1.8,0.9c-1.7-0.1-3.4-0.5-5.1-0.7c-0.5,0-1.1,0.2-1.4,0.5c-1.1,1.4-2.4,2.8-3.1,4.4
	c-0.3,0.7,0.7,1.9,1.1,2.8l-0.1-0.1c1.7,5,3.3,10,5,15c2.4,6.8,3.3,13.8,3.1,21c-0.1,3.8,0,7.7-0.5,11.5c-1.2,9-5,16.7-12.7,21.7
	c-3.8,2.5-8.2,4.2-12.9,4.9c-9.5,1.5-19,3.2-28.5,4.3c-4.8,0.6-9.7,0.2-14.5,0.1c-3.5-0.1-6.9-0.5-10.4-0.7
	c-8.4-0.5-16.9-1.1-25.3-1.6c-3.1-0.2-6.3,0.1-9.2-0.5c-6.6-1.4-13.2-3.4-16.1-10.4c-1.1-2.6-1.2-5.8-1.3-8.7
	c-0.4-6.5,0.2-12.9,1.6-19.2c0.1-0.4,0-0.9-0.3-1.4c-0.5,3-1,6-1.5,8.9c-0.1,0-0.2,0-0.4,0c0.3-2.5,0.5-5.1,1-7.5
	c1.5-6.6,3.1-13.2,5-19.7c0.7-2.3,1.9-4.6,3.2-6.6c0.8-1.3,1.1-2.3,0.3-3.6C58.6,74.2,58.6,73.7,58.5,73.2c0.5,0.8,1.1,1.6,2,2.8
	c0.2-1,0.6-1.8,0.3-2.3c-1.9-3.4-3.9-6.8-5.9-10.2c-0.2,0.1-0.3,0.2-0.5,0.3c0.3,0.8,0.7,1.5,1,2.3C56.4,68.5,57.5,70.9,58.5,73.2z
	 M103.7,105.1c0.5-0.6,1-1.6,1.7-1.9c2.7-0.9,5.4-0.9,7.6,1.4c0.5-4.3-2.9-6.5-9.3-5.9C103.7,100.8,103.7,103,103.7,105.1
	c-0.2,0.2-0.5,0.3-0.6,0.6c-0.7,2.8,0.7,5.6,3.3,7.2c0.9,0.6,1.5,0.6,2.5-0.1c2-1.5,4.1-2.7,6.2-4.1c-2.3-4.6-5-5.7-10.2-4
	C104.5,104.8,104.1,105,103.7,105.1z M147.6,59.4c0.3,1.7,0.4,3.2,0.8,4.7c0.7,2.6,1.4,5.1,2.4,7.6c0.6,1.6,2,1.3,2.8,0.1
	c0.9-1.3,1.7-2.8,2-4.3c0.5-3,0.6-6.1,0.8-9.2c0.1-1.2,0.1-2.5-0.3-3.5c-1.4-3.5-6.9-6.7-10.7-6.9c-4.5-0.2-8.3,1.4-11.9,3.6
	c-5.4,3.2-10.3,7-13.9,12.3c-2.3,3.3-1.6,5.7,0.3,8.6c2.8,4.1,7.4,4.3,9.5,0.3c1.6-3,2.7-6.3,4.1-9.3c0.3-0.7,1.2-1.8,1.7-1.7
	C139.4,61.9,143.4,61.2,147.6,59.4z M87.6,68.5c0.1,0.2,0.1,0.3,0.2,0.5c2.7-1,5.8-1.4,7.9-3.1c5.1-4.1,9.8-8.7,14.4-13.4
	c2-2,0.9-5.4-1.7-6.4c-4-1.5-8.2-1.3-12.1,0.2c-6.2,2.4-10.7,7-14.2,12.6c-1.5,2.5-1.3,5.1,0.1,7.4C83.3,68.1,85.3,68.7,87.6,68.5z
	 M151.1,101.3c5-2,9.1-1,12.2,3.4c0.4-0.5,0.8-0.8,1.2-1.3c2.2-2.8,2.4-5.6,0.4-7.3c-2-1.6-4.4-2.2-6.9-1.7
	c-1.9,0.4-3.5,1.5-5.5,2.4c-0.3-0.5-0.6-1.2-0.9-1.8c-0.9-2.6-2.3-4.8-4.9-6.1c-3.3-1.7-6.3-0.8-6.9,2.3
	C144.7,93.3,148.6,96.5,151.1,101.3z M162.5,105.4c-2.5-5-9.3-5.6-12.8-1.2c-1.5,2-2.4,4.4-3.9,7.1
	C152.1,109.9,157.5,108.4,162.5,105.4z M124.5,115.1c3.1-0.4,6.2-0.8,9.3-1.3c3.2-0.5,6.3-1,9.6-1.6
	C140.4,106.1,128.9,106.6,124.5,115.1z M130.2,43c0-0.1,0-0.2,0-0.3c2.3,0.2,4.7,0.4,7,0.6c2.1,0.1,4.3,0.3,6.4,0.3
	c0.6,0,1.6-0.4,1.7-0.7c0.1-0.6-0.2-1.6-0.6-1.9c-1.6-1.1-3.2-2.2-5-2.8c-1.5-0.6-3.3-0.6-5-0.8c-5.4-0.7-10.9-1.1-15.8,1.9
	c-1,0.6-3.2,0.7-2.4,2.5c0.4,0.8,2.3,0.9,3.6,1.3c0.2,0.1,0.5-0.1,0.8-0.1C124,43,127.1,43,130.2,43z M122.9,114.9
	c-1.3-3-3.7-4.5-6.6-4.5c-2.3,0-5.5,2-6.7,4.5C114.1,114.9,118.4,114.9,122.9,114.9z M113.4,101.4c1.9-2.1,2-2.6-0.1-4.3
	c-2.3-1.8-4.9-3.6-8.3-3.3c-0.3,1-0.6,2-0.9,3.2C108.1,96.9,111.3,98.2,113.4,101.4z M73.3,101.4c3.6-3.6,7.2-7.3,10.8-10.9
	C79.8,93.5,75.8,96.8,73.3,101.4z M72.4,92.2c0.1,0.2,0.2,0.4,0.4,0.6c3.2-2,6.5-4,9.7-6c-0.1-0.2-0.3-0.4-0.4-0.6
	C78.9,88.2,75.7,90.2,72.4,92.2z M72.3,87.2c0.1,0.2,0.2,0.4,0.2,0.7c3.1-1.1,6.1-2.3,9.2-3.4c-0.1-0.2-0.1-0.4-0.2-0.6
	C78.5,85,75.4,86.1,72.3,87.2z"/>
<path d="M157.7,33.2c-0.5,3.3-1,6.5-1.5,9.8c-0.2,0-0.5-0.1-0.7-0.1c0.5-3.3,1-6.5,1.5-9.8C157.3,33.2,157.5,33.2,157.7,33.2z"/>
<path d="M164.3,38.4c-1.4,1.9-2.8,3.8-4.2,5.7c-0.2-0.2-0.5-0.3-0.7-0.5c1.4-1.9,2.9-3.7,4.3-5.6C163.9,38.1,164.1,38.3,164.3,38.4z
	"/>
<path d="M111,35.2c-2.2-1.6-4.5-3.2-6.7-4.8C106.5,32,108.8,33.6,111,35.2z"/>
<path d="M157.1,42.2c0.9-2.4,1.7-4.9,2.6-7.3c0.2,0.1,0.4,0.1,0.6,0.2c-0.8,2.5-1.6,4.9-2.5,7.4C157.5,42.4,157.3,42.3,157.1,42.2z"
	/>
<path d="M173.4,67.1c0.2-0.1,0.7-0.3,0.7-0.3c1.1,2.7,2.1,5.4,2.7,8.2c-0.8-2.2-1.7-4.4-2.6-6.6C174.1,68,173.7,67.5,173.4,67.1
	C173.3,67.1,173.4,67.1,173.4,67.1z"/>
<path class="st1" d="M147.6,59.4c-4.2,1.8-8.2,2.5-12.4,2.2c-0.5,0-1.4,1-1.7,1.7c-1.4,3.1-2.5,6.3-4.1,9.3c-2.1,4-6.7,3.8-9.5-0.3
	c-1.9-2.9-2.6-5.3-0.3-8.6c3.7-5.4,8.5-9.2,13.9-12.3c3.6-2.1,7.5-3.8,11.9-3.6c3.8,0.2,9.3,3.4,10.7,6.9c0.4,1.1,0.4,2.4,0.3,3.5
	c-0.2,3.1-0.3,6.2-0.8,9.2c-0.2,1.5-1.1,3-2,4.3c-0.8,1.2-2.2,1.5-2.8-0.1c-1-2.4-1.7-5-2.4-7.6C148,62.6,147.9,61.1,147.6,59.4z"/>
<path class="st1" d="M87.6,68.5c-2.2,0.2-4.3-0.4-5.5-2.3c-1.4-2.3-1.7-4.9-0.1-7.4c3.5-5.6,8-10.2,14.2-12.6
	c3.9-1.5,8.1-1.7,12.1-0.2c2.7,1,3.8,4.4,1.7,6.4c-4.6,4.6-9.3,9.3-14.4,13.4c-2.1,1.7-5.2,2.1-7.9,3.1
	C87.7,68.8,87.6,68.6,87.6,68.5z M106.4,50.3c-0.3-2.7-2-4.1-4.8-3.4C94.4,48.6,89,52.8,85.3,59c-1.3,2.2-0.9,4.9,0.8,5.6
	c1.4,0.6,3.2,1,4.6,0.7c5.6-1.3,9.8-5,13.2-9.4C105.1,54.3,105.5,52.2,106.4,50.3z"/>
<path class="st1" d="M151.1,101.3c-2.4-4.8-6.4-8-11.3-10c0.7-3.1,3.6-4,6.9-2.3c2.6,1.3,4,3.5,4.9,6.1c0.2,0.7,0.6,1.3,0.9,1.8
	c1.9-0.9,3.6-2,5.5-2.4c2.4-0.5,4.9,0.1,6.9,1.7c2,1.6,1.8,4.5-0.4,7.3c-0.3,0.4-0.7,0.8-1.2,1.3
	C160.1,100.3,156.1,99.3,151.1,101.3z"/>
<path class="st1" d="M162.5,105.4c-4.9,2.9-10.4,4.5-16.6,6c1.4-2.7,2.3-5.2,3.9-7.1C153.2,99.8,160,100.5,162.5,105.4z"/>
<path class="st1" d="M103.7,105.1c0.4-0.1,0.8-0.3,1.1-0.4c5.2-1.8,7.9-0.6,10.2,4c-2.1,1.4-4.3,2.7-6.2,4.1
	c-0.9,0.7-1.5,0.6-2.5,0.1c-2.6-1.6-3.9-4.4-3.3-7.2C103.1,105.4,103.5,105.3,103.7,105.1L103.7,105.1z"/>
<path class="st1" d="M124.5,115.1c4.3-8.5,15.9-9,18.9-2.9c-3.3,0.5-6.4,1.1-9.6,1.6C130.8,114.2,127.7,114.6,124.5,115.1z"/>
<path class="st1" d="M130.2,43c-3.1,0-6.2,0-9.3,0c-0.3,0-0.6,0.1-0.8,0.1c-1.3-0.4-3.2-0.5-3.6-1.3c-0.8-1.8,1.4-1.9,2.4-2.5
	c5-3.1,10.4-2.6,15.8-1.9c1.7,0.2,3.4,0.2,5,0.8c1.8,0.6,3.4,1.7,5,2.8c0.5,0.3,0.7,1.3,0.6,1.9c-0.1,0.3-1.1,0.7-1.7,0.7
	c-2.1,0-4.3-0.1-6.4-0.3c-2.3-0.2-4.7-0.4-7-0.6C130.2,42.8,130.2,42.9,130.2,43z M144.4,42.9c0.1-0.4,0.2-0.7,0.4-1.1
	c-1.3-0.9-2.6-1.9-4.1-2.5c-1.7-0.7-3.5-0.9-5.3-1.3c-5.6-1-10.9,0-16.1,2c-0.4,0.2-1.1,0.8-1,1c0.2,0.5,0.7,1,1.2,1.2
	c0.4,0.2,1.1,0.2,1.6,0.1c6.8-1.3,13.6-1.1,20.4,0.4C142.3,43.1,143.4,42.9,144.4,42.9z"/>
<path class="st1" d="M122.9,114.9c-4.4,0-8.7,0-13.3,0c1.2-2.5,4.3-4.5,6.7-4.5C119.1,110.4,121.5,111.9,122.9,114.9z"/>
<path class="st1" d="M103.7,105.1c0-2.1,0-4.2,0-6.3c6.4-0.6,9.8,1.6,9.3,5.9c-2.2-2.3-4.9-2.3-7.6-1.4
	C104.7,103.5,104.2,104.5,103.7,105.1C103.7,105.1,103.7,105.1,103.7,105.1z"/>
<path class="st1" d="M113.4,101.4c-2.2-3.2-5.3-4.5-9.3-4.3c0.3-1.2,0.6-2.3,0.9-3.2c3.5-0.3,6,1.5,8.3,3.3
	C115.5,98.8,115.3,99.3,113.4,101.4z"/>
<path class="st1" d="M58.5,73.2c-1-2.4-2-4.7-3.1-7.1c-0.3-0.8-0.7-1.5-1-2.3c0.2-0.1,0.3-0.2,0.5-0.3c2,3.4,4,6.8,5.9,10.2
	c0.2,0.4-0.1,1.2-0.3,2.3C59.6,74.8,59,74,58.5,73.2C58.4,73.2,58.5,73.2,58.5,73.2z"/>
<path class="st1" d="M73.3,101.4c2.5-4.7,6.6-7.9,10.8-10.9C80.5,94.1,76.9,97.8,73.3,101.4z"/>
<path class="st1" d="M72.4,92.2c3.2-2,6.5-4,9.7-6c0.1,0.2,0.3,0.4,0.4,0.6c-3.2,2-6.5,4-9.7,6C72.7,92.6,72.6,92.4,72.4,92.2z"/>
<path class="st1" d="M72.3,87.2c3.1-1.1,6.2-2.2,9.2-3.3c0.1,0.2,0.1,0.4,0.2,0.6c-3.1,1.1-6.1,2.3-9.2,3.4
	C72.5,87.6,72.4,87.4,72.3,87.2z"/>
<path class="st0" d="M106.4,50.3c-0.8,1.9-1.3,4-2.5,5.6c-3.4,4.4-7.5,8.1-13.2,9.4c-1.4,0.3-3.2-0.1-4.6-0.7
	c-1.7-0.7-2.1-3.4-0.8-5.6c3.8-6.3,9.2-10.5,16.3-12.2C104.4,46.2,106.1,47.6,106.4,50.3z"/>
<path class="st0" d="M144.4,42.9c-1,0-2.1,0.2-3,0c-6.8-1.5-13.5-1.7-20.4-0.4c-0.5,0.1-1.1,0.1-1.6-0.1c-0.5-0.2-1-0.7-1.2-1.2
	c-0.1-0.2,0.6-0.9,1-1c5.2-2,10.6-3.1,16.1-2c1.8,0.3,3.6,0.6,5.3,1.3c1.5,0.6,2.7,1.7,4.1,2.5C144.6,42.2,144.5,42.6,144.4,42.9z"
	/>
</svg>
